<?xml version="1.0" standalone="no"?>
<!DOCTYPE svg PUBLIC "-//W3C//DTD SVG 20010904//EN"
 "http://www.w3.org/TR/2001/REC-SVG-20010904/DTD/svg10.dtd">
<svg version="1.0" xmlns="http://www.w3.org/2000/svg"
 width="700.000000pt" height="700.000000pt" viewBox="0 0 700.000000 700.000000"
 preserveAspectRatio="xMidYMid meet">
<metadata>
Created by potrace 1.11, written by Peter Selinger 2001-2013
</metadata>
<g transform="translate(0.000000,700.000000) scale(0.100000,-0.100000)"
fill="#000000" stroke="none">
<path d="M3505 5761 c-127 -57 -170 -233 -88 -363 12 -21 23 -41 23 -45 0 -5
-71 -198 -158 -431 l-157 -423 -80 -2 c-85 -3 -158 -31 -199 -76 l-19 -21 -41
23 c-63 36 -616 348 -656 370 -180 99 -178 98 -171 126 14 51 -2 147 -34 211
-93 184 -327 226 -469 84 -131 -131 -128 -364 6 -491 60 -57 114 -78 198 -78
83 0 137 20 199 75 18 16 36 30 38 30 3 0 35 -17 71 -39 120 -70 727 -409 754
-421 25 -12 26 -14 23 -99 -3 -74 0 -96 21 -147 13 -32 24 -62 24 -65 0 -3
-15 -22 -32 -41 -18 -19 -85 -90 -148 -158 -63 -68 -154 -164 -201 -214 -48
-50 -101 -108 -118 -128 l-33 -37 -56 28 c-196 99 -431 22 -549 -179 -15 -25
-28 -46 -29 -48 -1 -2 -121 61 -266 141 -144 80 -290 159 -323 177 -189 102
-185 98 -185 139 0 51 -46 138 -93 175 -31 24 -49 31 -100 34 -57 4 -66 1
-111 -30 -122 -82 -138 -273 -33 -382 80 -83 187 -83 269 -1 l27 27 78 -42
c43 -24 103 -56 133 -73 30 -16 98 -53 150 -82 91 -50 119 -65 290 -158 134
-73 125 -62 127 -146 2 -117 43 -231 110 -310 l29 -34 -135 -214 c-75 -117
-140 -221 -146 -230 -44 -74 -103 -161 -107 -158 -12 12 -76 10 -108 -2 -95
-38 -137 -147 -90 -238 11 -22 20 -40 20 -41 0 0 -18 -9 -40 -19 -127 -57
-208 -330 -140 -471 30 -60 77 -87 157 -90 56 -2 145 17 164 35 4 3 10 25 14
48 l6 41 -40 -20 c-22 -11 -67 -22 -99 -25 -102 -9 -152 36 -152 137 0 27 3
50 8 51 4 0 79 1 168 2 138 0 161 3 162 16 8 82 1 167 -17 204 -16 31 -18 43
-8 48 39 23 77 57 88 79 17 37 19 120 3 151 -7 15 -10 29 -5 31 5 2 67 95 138
208 119 188 242 381 247 387 2 2 21 -6 43 -17 74 -36 178 -45 262 -23 53 14
129 51 161 78 13 10 51 -14 240 -151 l225 -163 0 -103 c0 -114 16 -164 76
-239 32 -40 120 -99 150 -99 31 0 36 -18 23 -88 -7 -37 -15 -85 -18 -107 -4
-34 -44 -295 -62 -415 -3 -19 -8 -38 -11 -43 -4 -7 1 -9 44 -11 30 -1 36 13
47 105 4 30 11 79 16 109 5 30 12 73 15 95 10 68 16 109 19 130 2 11 10 62 17
114 12 85 15 94 39 103 136 52 214 132 238 244 7 33 12 37 62 54 30 10 258 85
505 166 248 81 455 149 461 151 6 2 24 -15 39 -39 70 -109 206 -177 329 -164
68 7 135 32 180 67 33 26 6 46 258 -201 143 -140 197 -198 192 -210 -17 -39
-15 -118 5 -171 l21 -54 -35 -70 c-19 -38 -40 -97 -46 -130 -13 -72 -6 -182
14 -222 42 -80 125 -108 245 -82 66 14 83 27 92 77 l7 41 -41 -21 c-50 -25
-151 -34 -185 -16 -42 23 -64 63 -67 123 -2 50 0 55 19 56 12 0 87 2 166 2
l145 2 7 29 c5 16 6 65 4 109 -4 62 -2 84 10 97 46 51 59 175 26 252 -24 55
-57 91 -112 118 -51 27 -121 23 -176 -10 -19 -11 -39 -17 -45 -14 -20 13 -398
388 -398 396 0 4 11 31 24 60 62 135 54 296 -21 425 -51 88 -188 183 -263 183
-18 0 -20 7 -20 78 0 42 -3 183 -5 312 -2 129 -6 331 -7 449 l-3 214 57 13
c62 14 124 49 175 96 l31 30 279 -198 c258 -184 284 -205 363 -297 47 -55 92
-107 100 -116 9 -9 45 -50 80 -91 36 -41 67 -77 70 -80 3 -3 20 -23 39 -45 45
-53 137 -158 184 -209 26 -29 35 -47 31 -61 -34 -113 -27 -168 28 -231 79 -90
215 -82 285 18 24 36 28 50 28 112 0 58 -5 77 -24 107 -39 58 -86 83 -156 84
-33 0 -65 5 -70 10 -6 6 -39 44 -75 85 -36 41 -67 77 -70 80 -5 4 -71 81 -220
254 -14 16 -34 39 -45 50 -11 12 -48 54 -82 93 l-63 71 48 54 c26 29 49 55 53
58 3 3 52 57 109 120 114 126 149 165 226 249 28 31 67 74 86 96 34 37 37 39
70 28 50 -15 130 -7 179 17 204 105 201 420 -5 520 -122 59 -269 3 -333 -128
-38 -78 -40 -193 -4 -264 l24 -47 -43 -48 c-23 -26 -50 -55 -59 -63 -9 -8 -31
-33 -50 -55 -18 -22 -54 -62 -80 -90 -25 -27 -108 -119 -184 -202 l-138 -153
-42 29 c-23 16 -141 99 -262 186 -217 154 -220 157 -215 188 3 18 5 70 4 117
0 73 -4 93 -29 143 -37 74 -102 139 -174 173 -102 49 -248 35 -337 -32 l-32
-23 -83 77 c-90 84 -96 90 -220 207 -92 87 -337 318 -381 358 -23 21 -26 30
-19 54 22 77 -12 187 -75 242 -63 56 -126 66 -199 32z m272 -500 c257 -242
353 -331 392 -370 26 -24 87 -81 138 -128 l92 -85 -16 -41 c-9 -25 -16 -76
-17 -127 0 -75 3 -93 30 -150 36 -75 104 -148 163 -175 38 -17 41 -21 42 -59
0 -69 8 -486 13 -773 l6 -271 -30 -7 c-16 -4 -45 -17 -64 -30 l-34 -23 -30 26
c-55 50 -227 207 -292 267 -35 33 -69 65 -75 70 -16 14 -185 168 -199 180 -36
34 -161 148 -212 195 -62 56 -226 208 -301 276 l-41 39 3 78 c4 106 -23 181
-90 256 l-35 38 90 244 c50 134 95 252 100 261 6 10 10 22 10 27 0 5 27 81 60
168 l61 158 39 -1 c21 -1 54 6 72 15 18 10 38 15 45 12 6 -3 42 -35 80 -70z
m-450 -1404 c38 -35 88 -81 113 -104 25 -22 59 -54 76 -69 17 -16 75 -69 129
-119 54 -49 103 -94 109 -100 73 -66 252 -230 291 -266 27 -26 64 -59 80 -74
17 -15 72 -66 124 -113 52 -48 102 -94 113 -103 18 -16 18 -18 -2 -64 -24 -56
-32 -104 -34 -193 l-1 -66 -135 -44 c-74 -24 -144 -47 -155 -52 -11 -5 -126
-43 -255 -84 -129 -42 -281 -91 -337 -110 l-101 -34 -32 64 c-56 115 -141 169
-265 169 -70 0 -87 -4 -135 -30 l-55 -30 -220 159 c-121 87 -222 161 -224 162
-2 2 7 36 19 75 31 95 33 236 5 314 -16 45 -49 112 -67 138 l-20 28 28 31 c81
85 118 124 219 233 61 65 144 154 185 197 41 44 81 88 89 97 13 17 16 17 55
-2 23 -11 71 -22 107 -25 57 -4 75 -1 120 21 30 13 63 32 74 41 11 8 23 16 27
16 4 0 38 -28 75 -63z m-2056 -2208 c18 -20 22 -33 33 -90 8 -38 -9 -44 -134
-45 -77 0 -120 4 -120 10 1 43 62 128 105 147 33 15 94 3 116 -22z m4313 -57
l61 3 3 -37 c2 -21 0 -39 -5 -39 -4 -1 -62 -2 -129 -3 l-121 -2 6 25 c3 14 15
40 25 58 l19 32 40 -20 c30 -16 54 -20 101 -17z"/>
<path d="M4195 1955 c-2 -5 -8 -31 -13 -57 -9 -46 -9 -46 19 -50 41 -6 48 2
55 63 l6 54 -32 0 c-18 1 -34 -4 -35 -10z"/>
<path d="M2150 1940 c-112 -20 -190 -123 -190 -250 0 -87 46 -132 177 -175 77
-24 93 -41 98 -101 4 -42 0 -58 -22 -92 -49 -75 -147 -89 -251 -35 l-60 30 -6
-36 c-11 -66 -10 -67 58 -89 83 -28 183 -25 243 6 81 42 133 138 128 237 -6
99 -39 135 -169 181 -96 34 -115 52 -112 107 5 120 124 173 254 112 28 -13 52
-21 52 -17 1 4 3 24 6 45 7 47 -10 63 -76 72 -77 11 -94 11 -130 5z"/>
<path d="M441 1918 c-5 -13 -28 -149 -51 -303 -23 -154 -45 -302 -51 -328 -5
-26 -9 -60 -9 -76 l0 -27 128 2 c104 2 138 6 186 24 150 57 237 220 232 437
-2 111 -22 168 -74 218 -50 47 -104 62 -226 64 -61 1 -113 4 -118 7 -4 3 -12
-5 -17 -18z m244 -81 c70 -23 106 -83 110 -186 7 -182 -59 -316 -180 -367 -38
-16 -195 -20 -195 -5 0 5 11 80 24 168 14 87 28 178 31 203 3 25 8 56 10 70 2
14 7 45 11 70 3 24 8 48 11 53 7 11 140 7 178 -6z"/>
<path d="M2626 1753 c-76 -20 -153 -114 -181 -224 -47 -180 4 -335 117 -354
144 -25 259 110 275 322 13 181 -77 290 -211 256z m104 -98 c55 -50 41 -266
-23 -345 -48 -60 -124 -78 -165 -40 -80 75 -34 341 68 393 40 20 92 17 120 -8z"/>
<path d="M3834 1743 c-113 -39 -196 -203 -188 -371 5 -119 52 -184 140 -198
51 -7 147 10 162 29 9 12 24 87 17 87 -1 0 -22 -9 -46 -20 -65 -29 -122 -26
-160 8 -29 26 -32 35 -36 103 -14 207 115 349 251 279 22 -10 42 -18 45 -15 4
2 8 21 9 43 2 33 -1 40 -25 51 -40 19 -121 21 -169 4z"/>
<path d="M4505 1751 c-46 -12 -69 -27 -105 -68 -117 -133 -127 -407 -16 -486
44 -31 136 -31 189 2 80 49 136 171 142 311 4 90 -8 142 -43 189 -34 46 -105
68 -167 52z m89 -86 c90 -59 52 -336 -55 -399 -56 -33 -122 -14 -145 40 -30
72 -8 233 42 309 38 58 111 81 158 50z"/>
<path d="M5024 1745 c-16 -7 -44 -27 -62 -45 l-33 -33 3 38 c3 36 2 38 -30 41
-36 3 -33 9 -52 -121 -7 -44 -14 -89 -15 -100 -2 -11 -6 -42 -10 -68 -3 -26
-10 -69 -14 -95 -5 -26 -12 -72 -16 -102 -4 -30 -9 -58 -11 -61 -6 -10 33 -18
55 -12 19 5 20 11 37 133 4 30 16 104 29 175 20 120 90 194 168 180 39 -8 65
-45 62 -91 -3 -34 -13 -116 -19 -154 -27 -157 -37 -232 -33 -237 11 -10 67 -9
68 1 0 6 2 22 5 36 2 14 11 72 20 130 8 58 18 119 21 135 12 69 10 164 -5 195
-28 59 -102 83 -168 55z"/>
<path d="M5942 1747 c-40 -15 -90 -62 -104 -96 -16 -41 -17 -104 -3 -139 15
-35 60 -67 117 -82 88 -24 119 -94 65 -147 -37 -37 -117 -43 -177 -14 -61 29
-70 27 -70 -14 0 -19 -1 -38 -2 -42 -5 -14 75 -36 141 -39 81 -4 137 22 174
79 44 66 48 165 9 201 -10 8 -45 27 -77 41 -95 41 -107 48 -117 74 -12 33 7
78 42 96 36 19 140 14 174 -8 14 -10 26 -16 27 -15 0 2 2 22 5 45 5 39 4 44
-21 53 -43 16 -147 21 -183 7z"/>
<path d="M1475 1691 c4 -30 8 -62 10 -71 4 -22 16 -111 21 -145 2 -16 6 -47
10 -68 3 -20 7 -47 8 -60 21 -170 18 -165 71 -162 25 1 47 3 49 6 5 5 246 547
246 553 0 4 -34 2 -71 -3 -4 -1 -12 -16 -20 -33 -7 -18 -27 -64 -45 -103 -17
-38 -46 -104 -64 -145 -18 -41 -41 -93 -51 -114 -11 -22 -19 -46 -19 -53 0
-17 -16 -17 -17 0 0 6 -8 68 -18 137 -23 175 -24 179 -30 235 -9 78 -11 82
-51 82 l-36 0 7 -56z"/>
<path d="M3204 1736 c-6 -19 -24 -131 -30 -187 -3 -30 -7 -56 -9 -59 -7 -11
-19 -126 -18 -175 1 -88 49 -145 120 -145 43 1 107 34 135 70 l26 33 -8 -41
c-4 -23 -5 -42 -1 -43 3 0 14 -2 25 -4 34 -6 44 6 52 63 4 31 8 59 9 62 0 3 5
31 9 64 4 32 9 68 11 80 2 11 9 57 15 101 7 44 14 87 15 96 14 69 14 89 2 91
-36 4 -43 4 -53 -4 -7 -5 -15 -34 -19 -66 -14 -118 -44 -280 -58 -313 -26 -63
-63 -97 -114 -105 -43 -6 -49 -5 -71 22 -22 25 -24 34 -19 98 3 39 15 130 26
201 12 72 22 139 23 150 3 16 -3 20 -31 21 -18 0 -35 -4 -37 -10z"/>
<path d="M4162 1735 c-4 -5 -7 -15 -8 -22 -3 -16 -11 -71 -24 -163 -6 -41 -17
-113 -25 -160 -7 -47 -16 -107 -20 -134 -3 -27 -8 -53 -11 -58 -3 -4 -2 -8 3
-9 41 -5 64 -5 67 0 2 3 7 26 10 51 3 25 8 54 10 65 2 11 6 41 10 66 4 25 9
57 11 70 9 53 45 288 45 297 0 13 -60 10 -68 -3z"/>
</g>
</svg>
